<?xml version="1.0" encoding="iso-8859-1"?>
<!-- Uploaded to: SVG Repo, www.svgrepo.com, Generator: SVG Repo Mixer Tools -->
<svg fill="#000000" height="800px" width="800px" version="1.1" id="Layer_1" xmlns="http://www.w3.org/2000/svg" xmlns:xlink="http://www.w3.org/1999/xlink" 
	 viewBox="0 0 512 512" xml:space="preserve">
<g>
	<g>
		<path d="M174.545,186.182h-10.473c2.327-5.818,4.655-10.473,8.145-16.291c6.982-12.8,13.964-26.764,13.964-43.055
			c0-37.236-18.618-57.018-52.364-57.018C57.018,69.818,0,132.655,0,215.273c0,70.982,32.582,110.545,93.091,110.545
			c22.109,0,39.564-5.818,52.364-18.618c13.964-13.964,19.782-34.909,19.782-62.836c0-6.982-5.818-11.636-11.636-11.636
			c-6.982,0-11.636,5.818-11.636,11.636c0,22.109-3.491,37.236-12.8,46.545c-8.145,8.145-19.782,11.636-36.073,11.636
			c-46.545,0-69.818-27.927-69.818-87.273c0-69.818,47.709-122.182,110.545-122.182c15.127,0,29.091,3.491,29.091,32.582
			c0,10.473-5.818,20.945-11.636,32.582c-6.982,11.636-12.8,24.436-12.8,39.564c0,6.982,4.655,11.636,11.636,11.636h24.436
			c25.6,0,46.545,20.945,46.545,46.545v174.545c0,6.982,4.655,11.636,11.636,11.636s11.636-4.655,11.636-11.636V256
			C244.364,217.6,212.945,186.182,174.545,186.182z"/>
	</g>
</g>
<g>
	<g>
		<path d="M378.182,69.818c-33.745,0-52.364,19.782-52.364,55.855c0,16.291,6.982,30.255,13.964,43.055
			c3.491,5.818,5.818,11.636,8.145,16.291h-10.473c-38.4,0-69.818,31.418-69.818,69.818v174.545c0,6.982,4.655,11.636,11.636,11.636
			c6.982,0,11.636-4.655,11.636-11.636V256c0-25.6,20.945-46.545,46.545-46.545h24.436c6.982,0,11.636-4.655,11.636-11.636
			c0-15.127-6.982-26.764-12.8-39.564c-5.818-10.473-11.636-20.945-11.636-32.582c0-29.091,13.964-32.582,29.091-32.582
			c62.836,0,110.545,52.364,110.545,122.182c0,58.182-23.273,87.273-69.818,87.273c-16.291,0-27.927-3.491-36.073-11.636
			c-9.309-9.309-12.8-24.436-12.8-46.545c0-6.982-4.655-11.636-11.636-11.636c-5.818,0-11.636,4.655-11.636,11.636
			c0,29.091,5.818,48.873,19.782,62.836c12.8,12.8,30.255,18.618,52.364,18.618c60.509,0,93.091-39.564,93.091-110.545
			C512,132.655,454.982,69.818,378.182,69.818z"/>
	</g>
</g>
</svg>